<svg width="163" height="37" viewBox="0 0 163 37" fill="none" xmlns="http://www.w3.org/2000/svg">
<path d="M50.9006 26.1696V32.1472H50.2383V29.7385H48.3837L46.9266 32.1472H46.198L47.6993 29.6556C47.2909 29.5488 46.9726 29.3426 46.7444 29.0369C46.52 28.7312 46.4077 28.3702 46.4077 27.9541C46.4077 27.4127 46.6009 26.9799 46.9873 26.6558C47.3773 26.3317 47.9035 26.1696 48.5659 26.1696H50.9006ZM47.0701 27.9651C47.0701 28.315 47.1805 28.6023 47.4013 28.8269C47.6257 29.0516 47.9366 29.1676 48.334 29.175H50.2383V26.7331H48.5493C48.0894 26.7331 47.7269 26.8436 47.462 27.0646C47.2007 27.2856 47.0701 27.5858 47.0701 27.9651Z" fill="#3C425F"/>
<path d="M58.161 27.7497C58.161 27.3887 58.0267 27.1106 57.7581 26.9154C57.4895 26.7202 57.1196 26.6226 56.6486 26.6226C56.2218 26.6226 55.8557 26.7331 55.5503 26.9541C55.2485 27.1714 55.0977 27.4476 55.0977 27.7828H54.4408C54.4408 27.2856 54.6524 26.8749 55.0756 26.5508C55.5024 26.2267 56.0268 26.0647 56.6486 26.0647C57.3331 26.0647 57.8666 26.212 58.2493 26.5066C58.632 26.8013 58.8233 27.2193 58.8233 27.7607C58.8233 28.048 58.735 28.3076 58.5584 28.5397C58.3818 28.7717 58.1242 28.9522 57.7857 29.0811C58.551 29.291 58.9337 29.7661 58.9337 30.5064C58.9337 31.0441 58.7258 31.4695 58.31 31.7826C57.8942 32.0956 57.3423 32.2522 56.6542 32.2522C55.9881 32.2522 55.4362 32.0846 54.9983 31.7494C54.5604 31.4143 54.3415 30.976 54.3415 30.4346H55.0038C55.0038 30.7955 55.1621 31.0975 55.4785 31.3406C55.7986 31.58 56.1905 31.6997 56.6542 31.6997C57.1583 31.6997 57.552 31.5947 57.8353 31.3848C58.1224 31.1712 58.2659 30.8821 58.2659 30.5175C58.2659 30.116 58.1352 29.8269 57.874 29.6501C57.6127 29.4733 57.2135 29.3849 56.6762 29.3849H55.7655V28.8104H56.7866C57.7029 28.7883 58.161 28.4347 58.161 27.7497Z" fill="#3C425F"/>
<path d="M63.0976 28.3408H64.8197C65.2613 28.3408 65.6477 28.4218 65.9788 28.5839C66.3137 28.7422 66.5657 28.9632 66.735 29.2468C66.9079 29.5304 66.9944 29.86 66.9944 30.2357C66.9944 30.8139 66.7957 31.278 66.3983 31.6279C66.0046 31.9741 65.471 32.1472 64.7977 32.1472H62.4408V26.1696H63.0976V28.3408ZM63.0976 28.9043V31.5892H64.8087C65.2834 31.5892 65.655 31.4695 65.9236 31.2301C66.1959 30.9907 66.3321 30.6629 66.3321 30.2468C66.3321 29.849 66.1996 29.5286 65.9347 29.2855C65.6734 29.0387 65.3146 28.9117 64.8584 28.9043H63.0976ZM69.0201 32.1472H68.3577V26.1696H69.0201V32.1472Z" fill="#3C425F"/>
<path d="M74.459 29.407H73.5428V32.1472H72.8749V26.1696H73.5428V28.8214H74.448L76.6392 26.1696H77.4727L75.022 29.07L77.7431 32.1472H76.871L74.459 29.407Z" fill="#3C425F"/>
<path d="M80.1905 29.07C80.1905 28.4955 80.3009 27.978 80.5216 27.5176C80.7461 27.0572 81.0607 26.7 81.4655 26.4459C81.8739 26.188 82.3357 26.0591 82.8509 26.0591C83.6457 26.0591 84.2896 26.3391 84.7827 26.8989C85.2758 27.455 85.5223 28.1935 85.5223 29.1142V29.2523C85.5223 29.8306 85.4101 30.3517 85.1856 30.8158C84.9649 31.2762 84.6521 31.6316 84.2473 31.882C83.8426 32.1325 83.3808 32.2577 82.8619 32.2577C82.0708 32.2577 81.4268 31.9796 80.9301 31.4235C80.437 30.8637 80.1905 30.1234 80.1905 29.2026V29.07ZM80.8528 29.2523C80.8528 29.9668 81.0368 30.5543 81.4048 31.0147C81.7764 31.4714 82.2621 31.6997 82.8619 31.6997C83.458 31.6997 83.9401 31.4714 84.308 31.0147C84.6797 30.5543 84.8655 29.9484 84.8655 29.1971V29.07C84.8655 28.6133 84.7809 28.1953 84.6116 27.816C84.4423 27.4366 84.205 27.1438 83.8996 26.9375C83.5942 26.7276 83.2446 26.6226 82.8509 26.6226C82.2621 26.6226 81.7819 26.8547 81.4103 27.3187C81.0386 27.7791 80.8528 28.3831 80.8528 29.1308V29.2523Z" fill="#3C425F"/>
<path d="M88.9411 32.1472V26.1696H91.1324C91.8904 26.1696 92.4718 26.3059 92.8765 26.5785C93.2813 26.8473 93.4837 27.2432 93.4837 27.7662C93.4837 28.0646 93.3935 28.3316 93.2132 28.5673C93.0329 28.7993 92.7698 28.9687 92.4239 29.0755C92.814 29.1492 93.1267 29.3168 93.3622 29.5783C93.6014 29.8398 93.721 30.1436 93.721 30.4898C93.721 31.0165 93.526 31.4253 93.1359 31.7163C92.7496 32.0036 92.2013 32.1472 91.4911 32.1472H88.9411ZM89.5979 29.396V31.5947H91.5132C92.01 31.5947 92.3926 31.499 92.6613 31.3075C92.9299 31.116 93.0642 30.8397 93.0642 30.4788C93.0642 30.1473 92.9299 29.884 92.6613 29.6888C92.3926 29.4936 92.01 29.396 91.5132 29.396H89.5979ZM89.5979 28.8435H91.2703C92.308 28.8288 92.8268 28.4752 92.8268 27.7828C92.8268 27.4182 92.6833 27.153 92.3963 26.9873C92.113 26.8178 91.6917 26.7331 91.1324 26.7331H89.5979V28.8435Z" fill="#3C425F"/>
<path d="M100.943 32.1472C100.877 31.9594 100.834 31.6813 100.816 31.313C100.584 31.615 100.288 31.8489 99.9272 32.0146C99.5702 32.1767 99.1912 32.2577 98.7901 32.2577C98.2161 32.2577 97.7506 32.0975 97.3937 31.7771C97.0404 31.4566 96.8638 31.0515 96.8638 30.5617C96.8638 29.9797 97.1048 29.5194 97.5869 29.1805C98.0726 28.8417 98.7478 28.6723 99.6125 28.6723H100.81V27.9927C100.81 27.5655 100.678 27.2303 100.413 26.9873C100.152 26.7405 99.7689 26.6171 99.2648 26.6171C98.8048 26.6171 98.424 26.735 98.1223 26.9707C97.8205 27.2064 97.6697 27.49 97.6697 27.8215L97.0073 27.816C97.0073 27.3408 97.2281 26.9302 97.6697 26.584C98.1112 26.2341 98.654 26.0591 99.2979 26.0591C99.9639 26.0591 100.488 26.2267 100.871 26.5619C101.257 26.8934 101.456 27.3574 101.467 27.9541V30.7826C101.467 31.3609 101.528 31.7936 101.649 32.0809V32.1472H100.943ZM98.8674 31.6721C99.309 31.6721 99.7027 31.5653 100.049 31.3517C100.398 31.138 100.652 30.8526 100.81 30.4954V29.1805H99.6291C98.9704 29.1879 98.4553 29.3094 98.0836 29.5451C97.712 29.7772 97.5262 30.0976 97.5262 30.5064C97.5262 30.8416 97.6494 31.1196 97.896 31.3406C98.1462 31.5616 98.47 31.6721 98.8674 31.6721Z" fill="#3C425F"/>
<path d="M109.566 26.1696V32.1472H108.904V29.7385H107.05L105.592 32.1472H104.864L106.365 29.6556C105.957 29.5488 105.638 29.3426 105.41 29.0369C105.186 28.7312 105.074 28.3702 105.074 27.9541C105.074 27.4127 105.267 26.9799 105.653 26.6558C106.043 26.3317 106.569 26.1696 107.232 26.1696H109.566ZM105.736 27.9651C105.736 28.315 105.846 28.6023 106.067 28.8269C106.292 29.0516 106.602 29.1676 107 29.175H108.904V26.7331H107.215C106.755 26.7331 106.393 26.8436 106.128 27.0646C105.867 27.2856 105.736 27.5858 105.736 27.9651Z" fill="#3C425F"/>
<path d="M121.86 26.1696V31.5892H124.515V26.1696H125.178V31.5892H127.81V26.1696H128.473V32.1472H121.198V26.1696H121.86Z" fill="#3C425F"/>
<path d="M133.73 29.407H132.813V32.1472H132.145V26.1696H132.813V28.8214H133.718L135.91 26.1696H136.743L134.292 29.07L137.014 32.1472H136.142L133.73 29.407Z" fill="#3C425F"/>
<path d="M139.461 29.07C139.461 28.4955 139.571 27.978 139.792 27.5176C140.017 27.0572 140.331 26.7 140.736 26.4459C141.144 26.188 141.606 26.0591 142.121 26.0591C142.916 26.0591 143.56 26.3391 144.053 26.8989C144.546 27.455 144.793 28.1935 144.793 29.1142V29.2523C144.793 29.8306 144.681 30.3517 144.456 30.8158C144.235 31.2762 143.923 31.6316 143.518 31.882C143.113 32.1325 142.651 32.2577 142.132 32.2577C141.341 32.2577 140.697 31.9796 140.201 31.4235C139.708 30.8637 139.461 30.1234 139.461 29.2026V29.07ZM140.123 29.2523C140.123 29.9668 140.307 30.5543 140.675 31.0147C141.047 31.4714 141.533 31.6997 142.132 31.6997C142.729 31.6997 143.211 31.4714 143.579 31.0147C143.95 30.5543 144.136 29.9484 144.136 29.1971V29.07C144.136 28.6133 144.051 28.1953 143.882 27.816C143.713 27.4366 143.475 27.1438 143.17 26.9375C142.865 26.7276 142.515 26.6226 142.121 26.6226C141.533 26.6226 141.052 26.8547 140.681 27.3187C140.309 27.7791 140.123 28.3831 140.123 29.1308V29.2523Z" fill="#3C425F"/>
<path d="M152.644 26.1696V32.1472H151.981V26.7387H149.536L149.431 28.9761C149.387 29.8048 149.304 30.4383 149.183 30.8766C149.062 31.3112 148.881 31.6316 148.642 31.8378C148.403 32.0441 148.085 32.1472 147.687 32.1472H147.433V31.5616L147.638 31.5505C148.017 31.5432 148.289 31.359 148.454 30.9981C148.62 30.6372 148.729 29.9926 148.78 29.0645L148.902 26.1696H152.644Z" fill="#3C425F"/>
<path d="M160.169 32.1472C160.103 31.9594 160.061 31.6813 160.042 31.313C159.81 31.615 159.514 31.8489 159.153 32.0146C158.797 32.1767 158.418 32.2577 158.016 32.2577C157.442 32.2577 156.977 32.0975 156.62 31.7771C156.267 31.4566 156.09 31.0515 156.09 30.5617C156.09 29.9797 156.331 29.5194 156.813 29.1805C157.299 28.8417 157.974 28.6723 158.839 28.6723H160.037V27.9927C160.037 27.5655 159.904 27.2303 159.639 26.9873C159.378 26.7405 158.995 26.6171 158.491 26.6171C158.031 26.6171 157.65 26.735 157.349 26.9707C157.047 27.2064 156.896 27.49 156.896 27.8215L156.234 27.816C156.234 27.3408 156.454 26.9302 156.896 26.584C157.338 26.2341 157.88 26.0591 158.524 26.0591C159.19 26.0591 159.715 26.2267 160.097 26.5619C160.484 26.8934 160.682 27.3574 160.693 27.9541V30.7826C160.693 31.3609 160.754 31.7936 160.876 32.0809V32.1472H160.169ZM158.094 31.6721C158.535 31.6721 158.929 31.5653 159.275 31.3517C159.624 31.138 159.878 30.8526 160.037 30.4954V29.1805H158.855C158.197 29.1879 157.682 29.3094 157.31 29.5451C156.938 29.7772 156.752 30.0976 156.752 30.5064C156.752 30.8416 156.876 31.1196 157.122 31.3406C157.373 31.5616 157.696 31.6721 158.094 31.6721Z" fill="#3C425F"/>
<path d="M49.5097 14.6831H56.5416V17.3459H46.198V1.25841H49.5097V14.6831Z" fill="#3C425F"/>
<path d="M63.9651 17.5669C62.2136 17.5669 60.7859 17.0292 59.6819 15.9537C58.5854 14.8783 58.0371 13.4456 58.0371 11.6556V11.3462C58.0371 10.1456 58.269 9.07381 58.7326 8.13095C59.1962 7.18073 59.8512 6.45149 60.6975 5.94323C61.5512 5.42761 62.5227 5.16979 63.6118 5.16979C65.2456 5.16979 66.5298 5.68542 67.4645 6.71667C68.4065 7.74792 68.8775 9.21008 68.8775 11.1032V12.407H61.2716C61.3746 13.1878 61.6837 13.8139 62.1988 14.2853C62.7214 14.7567 63.38 14.9925 64.1748 14.9925C65.4038 14.9925 66.3642 14.5468 67.056 13.6555L68.6236 15.4123C68.1452 16.09 67.4976 16.6204 66.6807 17.0034C65.8638 17.3791 64.9586 17.5669 63.9651 17.5669ZM63.6008 7.75529C62.9679 7.75529 62.4527 7.9689 62.0553 8.39613C61.6653 8.82337 61.4151 9.43475 61.3047 10.2303H65.7424V9.97616C65.7277 9.26901 65.5363 8.72392 65.1683 8.34089C64.8004 7.95049 64.2779 7.75529 63.6008 7.75529Z" fill="#3C425F"/>
<path d="M74.7445 2.45171V5.39078H76.7867V7.73319H74.7445V13.6997C74.7445 14.1417 74.8291 14.4584 74.9984 14.6499C75.1676 14.8414 75.4915 14.9372 75.9698 14.9372C76.3231 14.9372 76.6358 14.9114 76.9081 14.8599V17.2796C76.2826 17.4711 75.6386 17.5669 74.9763 17.5669C72.7391 17.5669 71.5984 16.4362 71.5542 14.1748V7.73319H69.81V5.39078H71.5542V2.45171H74.7445Z" fill="#3C425F"/>
<path d="M79.9712 6.19736L78.4699 5.32448C79.1028 4.33006 79.4303 3.30249 79.4524 2.24178V0.374481H81.9914V2.08709C81.9914 2.75004 81.8074 3.46823 81.4394 4.24167C81.0715 5.01511 80.5821 5.667 79.9712 6.19736Z" fill="#3C425F"/>
<path d="M88.3772 14.0422C88.3772 13.6518 88.1822 13.3461 87.7922 13.1252C87.4095 12.8968 86.7913 12.6942 85.9376 12.5175C83.0969 11.9208 81.6765 10.7128 81.6765 8.89334C81.6765 7.83263 82.1144 6.9487 82.9902 6.24156C83.8733 5.52705 85.0251 5.16979 86.4454 5.16979C87.9614 5.16979 89.172 5.52705 90.0772 6.24156C90.9898 6.95607 91.4461 7.88419 91.4461 9.02593H88.2558C88.2558 8.56924 88.1086 8.19357 87.8142 7.89892C87.5199 7.59691 87.0599 7.44591 86.4344 7.44591C85.8971 7.44591 85.4813 7.56745 85.187 7.81053C84.8926 8.05361 84.7454 8.36299 84.7454 8.73866C84.7454 9.09223 84.911 9.3795 85.2422 9.60049C85.5807 9.8141 86.1474 10.0019 86.9422 10.164C87.737 10.3187 88.4067 10.4955 88.9513 10.6943C90.6366 11.3131 91.4792 12.3849 91.4792 13.9096C91.4792 14.9998 91.0119 15.8837 90.0772 16.5614C89.1426 17.2317 87.9357 17.5669 86.4564 17.5669C85.4556 17.5669 84.5651 17.3901 83.785 17.0365C83.0123 16.6756 82.4051 16.1858 81.9636 15.567C81.522 14.9409 81.3012 14.2669 81.3012 13.545H84.3259C84.3554 14.1122 84.5651 14.5468 84.9551 14.8488C85.3452 15.1508 85.8677 15.3018 86.5227 15.3018C87.1335 15.3018 87.5935 15.1877 87.9026 14.9593C88.219 14.7236 88.3772 14.4179 88.3772 14.0422Z" fill="#3C425F"/>
<path d="M108.17 13.1252C108.17 12.499 107.949 12.0202 107.507 11.6888C107.066 11.3499 106.271 10.9964 105.123 10.6281C103.975 10.2524 103.066 9.88408 102.396 9.52314C100.571 8.53609 99.6587 7.20651 99.6587 5.53441C99.6587 4.66522 99.9015 3.89178 100.387 3.2141C100.88 2.52906 101.583 1.99502 102.496 1.61198C103.416 1.22895 104.446 1.03743 105.587 1.03743C106.735 1.03743 107.758 1.24736 108.655 1.66723C109.553 2.07973 110.249 2.66533 110.742 3.42403C111.242 4.18274 111.493 5.04457 111.493 6.00953H108.181C108.181 5.27292 107.949 4.70205 107.485 4.29691C107.022 3.88441 106.37 3.67816 105.531 3.67816C104.722 3.67816 104.093 3.85127 103.644 4.19747C103.195 4.53631 102.97 4.98564 102.97 5.54546C102.97 6.06845 103.232 6.50674 103.754 6.86031C104.284 7.21388 105.06 7.54535 106.083 7.85473C107.967 8.42191 109.34 9.12537 110.201 9.96511C111.062 10.8048 111.493 11.8508 111.493 13.1031C111.493 14.4952 110.966 15.5891 109.914 16.3846C108.862 17.1728 107.445 17.5669 105.664 17.5669C104.428 17.5669 103.302 17.3422 102.286 16.8929C101.27 16.4362 100.494 15.8138 99.9567 15.0256C99.4269 14.2374 99.1619 13.324 99.1619 12.2854H102.485C102.485 14.0606 103.544 14.9483 105.664 14.9483C106.451 14.9483 107.066 14.7899 107.507 14.4731C107.949 14.149 108.17 13.6997 108.17 13.1252Z" fill="#3C425F"/>
<path d="M124.513 11.4788C124.513 13.3204 124.093 14.7972 123.254 15.9095C122.423 17.0144 121.297 17.5669 119.876 17.5669C118.67 17.5669 117.694 17.147 116.951 16.3073V21.9423H113.761V5.39078H116.719L116.83 6.56198C117.602 5.63386 118.611 5.16979 119.854 5.16979C121.326 5.16979 122.471 5.71488 123.287 6.80506C124.104 7.89524 124.513 9.39792 124.513 11.3131V11.4788ZM121.323 11.2468C121.323 10.1345 121.124 9.27638 120.726 8.67236C120.336 8.06834 119.766 7.76633 119.015 7.76633C118.015 7.76633 117.326 8.14937 116.951 8.91544V13.8102C117.341 14.5984 118.037 14.9925 119.037 14.9925C120.561 14.9925 121.323 13.7439 121.323 11.2468Z" fill="#3C425F"/>
<path d="M132.223 17.5669C130.472 17.5669 129.044 17.0292 127.94 15.9537C126.844 14.8783 126.295 13.4456 126.295 11.6556V11.3462C126.295 10.1456 126.527 9.07381 126.991 8.13095C127.455 7.18073 128.109 6.45149 128.956 5.94323C129.81 5.42761 130.781 5.16979 131.87 5.16979C133.504 5.16979 134.788 5.68542 135.723 6.71667C136.665 7.74792 137.136 9.21008 137.136 11.1032V12.407H129.53C129.633 13.1878 129.942 13.8139 130.457 14.2853C130.98 14.7567 131.638 14.9925 132.433 14.9925C133.662 14.9925 134.623 14.5468 135.314 13.6555L136.882 15.4123C136.403 16.09 135.756 16.6204 134.939 17.0034C134.122 17.3791 133.217 17.5669 132.223 17.5669ZM131.859 7.75529C131.226 7.75529 130.711 7.9689 130.314 8.39613C129.924 8.82337 129.673 9.43475 129.563 10.2303H134.001V9.97616C133.986 9.26901 133.795 8.72392 133.427 8.34089C133.059 7.95049 132.536 7.75529 131.859 7.75529Z" fill="#3C425F"/>
<path d="M146.105 17.3459C145.958 17.0586 145.851 16.7014 145.785 16.2741C145.012 17.136 144.007 17.5669 142.771 17.5669C141.601 17.5669 140.629 17.2281 139.857 16.5504C139.091 15.8727 138.709 15.0182 138.709 13.987C138.709 12.72 139.176 11.7477 140.111 11.07C141.053 10.3923 142.41 10.0498 144.184 10.0425H145.652V9.35741C145.652 8.80495 145.509 8.36299 145.222 8.03151C144.942 7.70004 144.497 7.5343 143.886 7.5343C143.349 7.5343 142.925 7.66321 142.616 7.92102C142.315 8.17883 142.164 8.53241 142.164 8.98174H138.974C138.974 8.28933 139.187 7.64848 139.614 7.05919C140.041 6.46991 140.644 6.00953 141.424 5.67805C142.204 5.33921 143.08 5.16979 144.051 5.16979C145.523 5.16979 146.69 5.54178 147.551 6.28575C148.419 7.02236 148.853 8.06098 148.853 9.4016V14.5836C148.861 15.718 149.019 16.5762 149.328 17.1581V17.3459H146.105ZM143.466 15.125C143.937 15.125 144.372 15.0219 144.769 14.8157C145.166 14.602 145.461 14.3185 145.652 13.9649V11.9097H144.46C142.863 11.9097 142.013 12.4622 141.91 13.5671L141.899 13.755C141.899 14.1527 142.039 14.4805 142.318 14.7383C142.598 14.9961 142.981 15.125 143.466 15.125Z" fill="#3C425F"/>
<path d="M155.869 12.5506L154.72 13.6997V17.3459H151.53V0.374481H154.72V9.77727L155.339 8.98174L158.396 5.39078H162.227L157.911 10.3739L162.602 17.3459H158.937L155.869 12.5506Z" fill="#3C425F"/>
<path fill-rule="evenodd" clip-rule="evenodd" d="M0.197998 8.37448C0.197998 3.9562 3.77972 0.374481 8.198 0.374481H25.198C29.6163 0.374481 33.198 3.9562 33.198 8.37448V23.3745C33.198 27.7928 29.6163 31.3745 25.198 31.3745H15.198L5.198 36.3745V30.793C2.26617 29.6062 0.197998 26.7319 0.197998 23.3745V8.37448ZM25.1979 12.3745C25.1979 10.1653 23.4071 8.37448 21.1979 8.37448H12.1979C9.9888 8.37448 8.19794 10.1653 8.19794 12.3745V18.3745C8.19794 20.5836 9.9888 22.3745 12.1979 22.3745H14.1979L22.1979 26.3745V22.2485C23.9232 21.8044 25.1979 20.2383 25.1979 18.3745V12.3745Z" fill="url(#paint0_linear_4_16)"/>
<defs>
<linearGradient id="paint0_linear_4_16" x1="33.198" y1="0.374481" x2="0.197999" y2="36.3745" gradientUnits="userSpaceOnUse">
<stop stop-color="#6F85EF"/>
<stop offset="1" stop-color="#0DE1D4"/>
</linearGradient>
</defs>
</svg>
