<svg width="14" height="17" viewBox="0 0 14 17" fill="none" xmlns="http://www.w3.org/2000/svg">
<path d="M13.832 8.50195C13.832 10.0273 13.5492 11.3773 12.9834 12.5518C12.4176 13.7262 11.612 14.6322 10.5664 15.2695C9.52799 15.8997 8.34277 16.2148 7.01074 16.2148C5.67871 16.2148 4.49707 15.9105 3.46582 15.3018C2.43457 14.6859 1.62891 13.8086 1.04883 12.6699C0.475911 11.5312 0.17513 10.2243 0.146484 8.74902V7.86816C0.146484 6.33561 0.425781 4.98568 0.984375 3.81836C1.55013 2.64388 2.35579 1.73796 3.40137 1.10059C4.4541 0.463216 5.65007 0.144531 6.98926 0.144531C8.31413 0.144531 9.49577 0.459635 10.5342 1.08984C11.5726 1.72005 12.3783 2.61882 12.9512 3.78613C13.5312 4.94629 13.8249 6.27832 13.832 7.78223V8.50195ZM9.99707 7.84668C9.99707 6.29264 9.73568 5.11458 9.21289 4.3125C8.69727 3.50326 7.95605 3.09863 6.98926 3.09863C5.09863 3.09863 4.09961 4.5166 3.99219 7.35254L3.98145 8.50195C3.98145 10.0345 4.23568 11.2126 4.74414 12.0361C5.2526 12.8597 6.00814 13.2715 7.01074 13.2715C7.96322 13.2715 8.69727 12.8669 9.21289 12.0576C9.72852 11.2484 9.98991 10.0846 9.99707 8.56641V7.84668Z" fill="#B4BEF0"/>
</svg>
